<?xml version="1.0" encoding="utf-8"?>
<!-- Generated by IcoMoon.io -->
<!DOCTYPE svg PUBLIC "-//W3C//DTD SVG 1.1//EN" "http://www.w3.org/Graphics/SVG/1.1/DTD/svg11.dtd">
<svg version="1.1" xmlns="http://www.w3.org/2000/svg" xmlns:xlink="http://www.w3.org/1999/xlink" width="512" height="512" viewBox="0 0 512 512">
<g>
</g>
	<path d="M491.243 271.575l-21.781-63.519c-6.185-18.064-28.713-26.696-50.309-19.282l-255.877 87.624c-21.576 7.424-34.078 28.078-27.904 46.162l21.76 63.478c6.185 18.043 28.733 26.695 50.34 19.303l255.857-87.685c21.575-7.353 34.079-28.017 27.914-46.080zM191.458 338.985c-7.055 0-12.821-5.745-12.821-12.8s5.765-12.779 12.821-12.779c7.035 0 12.769 5.724 12.769 12.779s-5.744 12.8-12.769 12.8z" fill="#000000" />
	<path d="M19.19 319.601l47.934 140.001c38.656-13.2 59.259-55.276 46.008-93.983-13.261-38.635-55.327-59.259-93.942-46.019z" fill="#000000" />
	<path d="M133.096 397.322l-23.641-69.103 14.941-5.111 23.64 69.103-14.94 5.111z" fill="#000000" />
	<path d="M236.38 52.398h120.382v27.617h-120.382v-27.617z" fill="#000000" />
	<path d="M312.647 212.081v-121.078h-35.543l0.553 133.796z" fill="#000000" />
</svg>
