<?xml version="1.0" encoding="utf-8"?>
<!-- Generated by IcoMoon.io -->
<!DOCTYPE svg PUBLIC "-//W3C//DTD SVG 1.1//EN" "http://www.w3.org/Graphics/SVG/1.1/DTD/svg11.dtd">
<svg version="1.1" xmlns="http://www.w3.org/2000/svg" xmlns:xlink="http://www.w3.org/1999/xlink" width="512" height="512" viewBox="0 0 512 512">
<g>
</g>
	<path d="M197.714 6.329h116.551l43.264 190.321h-26.624v118.18c3.328 1.096 6.082 4.444 6.082 8.305 0 4.997-4.434 8.878-8.858 8.878-4.987 0-9.421-3.881-9.421-8.878 0-3.861 2.775-7.199 6.103-8.305v-118.18h-170.332l43.233-190.321zM256.010 117.289c-11.663 0-20.531 8.898-20.531 20.541 0 7.782 4.444 14.981 10.526 18.32v19.958h19.988v-19.958c6.093-3.338 10.526-10.537 10.526-18.32 0.010-11.643-8.868-20.541-20.51-20.541v0zM209.94 26.327l-34.396 150.897h161.444l-34.939-150.897h-92.109zM244.347 216.607v265.759h-31.078v23.296h85.442v-23.296h-31.058v-265.759h-23.306z" fill="#000000" />
</svg>
