<?xml version="1.0" encoding="utf-8"?>
<!-- Generated by IcoMoon.io -->
<!DOCTYPE svg PUBLIC "-//W3C//DTD SVG 1.1//EN" "http://www.w3.org/Graphics/SVG/1.1/DTD/svg11.dtd">
<svg version="1.1" xmlns="http://www.w3.org/2000/svg" xmlns:xlink="http://www.w3.org/1999/xlink" width="512" height="512" viewBox="0 0 512 512">
<g>
</g>
	<path d="M126.198 382.567c14.1 11.284 23.695 28.764 23.695 48.496 0 33.843-27.648 60.897-61.471 60.897-33.28 0-60.877-27.065-60.877-60.897 0-19.743 9.021-37.222 23.675-48.496v-324.752c0-20.859 16.906-37.776 37.212-37.776v0c20.869 0 37.765 16.916 37.765 37.776v324.752zM99.717 410.767v-114.442h20.859v-13.005h-20.859v-29.297h20.859v-12.4h-20.859v-25.354h20.859v-12.441h-20.859v-26.481h20.859v-12.4h-20.859v-23.122h20.859v-12.421h-20.859v-29.87c0-6.195-5.090-11.284-11.294-11.284v0c-5.632 0-10.711 5.079-10.711 11.284v29.881h-21.412v12.421h21.422v23.122h-21.422v12.4h21.422v26.481h-21.422v12.441h21.422v25.364h-21.422v12.4h21.422v29.296h-21.422v13.005h21.422v114.442c-7.895 3.942-12.974 11.817-12.974 21.442 0 12.964 10.742 23.664 23.685 23.664 13.537 0 24.238-10.701 24.238-23.664-0.010-9.636-5.642-17.521-12.954-21.463z" fill="#000000" />
	<path d="M421.099 131.666c74.967 62.597 84.572 173.68 22.569 247.522-62.597 74.978-173.691 84.582-248.689 22.558-28.18-23.685-47.36-54.118-56.381-87.378 65.987 46.244 157.87 34.939 210.329-27.638 46.233-55.245 47.943-132.495 9.595-188.877 22.548 6.738 43.981 18.012 62.577 33.813z" fill="#000000" />
</svg>
